<?xml version="1.0" encoding="UTF-8" standalone="no"?>
<!-- Created with Inkscape (http://www.inkscape.org/) -->

<svg
   version="1.1"
   id="svg9"
   width="168.96001"
   height="345.60001"
   viewBox="0 0 168.96001 345.60001"
   sodipodi:docname="fondPage.svg"
   inkscape:version="1.2.2 (732a01da63, 2022-12-09)"
   xmlns:inkscape="http://www.inkscape.org/namespaces/inkscape"
   xmlns:sodipodi="http://sodipodi.sourceforge.net/DTD/sodipodi-0.dtd"
   xmlns="http://www.w3.org/2000/svg"
   xmlns:svg="http://www.w3.org/2000/svg">
  <defs
     id="defs13" />
  <sodipodi:namedview
     id="namedview11"
     pagecolor="#ffffff"
     bordercolor="#000000"
     borderopacity="0.25"
     inkscape:showpageshadow="2"
     inkscape:pageopacity="0.0"
     inkscape:pagecheckerboard="0"
     inkscape:deskcolor="#d1d1d1"
     showgrid="false"
     inkscape:zoom="2.2424768"
     inkscape:cx="40.134194"
     inkscape:cy="159.86787"
     inkscape:window-width="1920"
     inkscape:window-height="991"
     inkscape:window-x="-9"
     inkscape:window-y="-9"
     inkscape:window-maximized="1"
     inkscape:current-layer="g15" />
  <g
     inkscape:groupmode="layer"
     inkscape:label="Image"
     id="g15">
    <g
       id="g177">
      <path
         style="fill:#edeff0;stroke-width:0.32"
         d="m 84.008741,345.20001 c -0.14959,-0.45616 -10.408737,-73.16163 -10.408737,-73.76562 0,-0.21691 -0.146332,-0.39438 -0.325184,-0.39438 -0.178851,0 -6.471203,4.17165 -13.983008,9.27032 -7.511803,5.09868 -13.704161,9.22399 -13.760798,9.16736 -0.05664,-0.0566 4.216375,-7.78363 9.495575,-17.1711 5.279203,-9.38746 9.526452,-17.14021 9.438327,-17.22834 -0.08813,-0.0881 2.039219,-0.77794 4.72743,-1.53292 2.688212,-0.75499 6.111658,-1.73947 7.607659,-2.18774 1.496,-0.44826 5.383139,-1.54225 8.63809,-2.43106 3.25495,-0.88882 5.97895,-1.67689 6.053334,-1.75128 0.07438,-0.0744 -0.356758,-0.13533 -0.958089,-0.13543 -0.601335,-1e-4 -3.685335,-0.13744 -6.853335,-0.30519 -3.168,-0.16775 -7.704001,-0.39622 -10.080001,-0.50769 -2.376,-0.11148 -4.38,-0.26215 -4.453334,-0.33481 -0.07333,-0.0727 0.07841,-0.13212 0.337206,-0.13212 0.412743,0 5.716128,-8.85252 5.716128,-9.54148 0,-0.13891 -1.701766,-1.93338 -3.781705,-3.98769 l -3.781706,-3.73513 -0.368791,-3.76785 c -0.202835,-2.07232 -0.46208,-4.93772 -0.576099,-6.36755 l -0.207305,-2.59969 -5.278708,2.37652 c -2.903287,1.30708 -5.34025,2.31497 -5.415472,2.23975 -0.07522,-0.0752 0.471341,-0.38008 1.214579,-0.67747 l 1.351344,-0.5407 -14.858068,-14.86113 -14.858071,-14.86113 -0.08706,5.92178 c -0.04788,3.25697 -0.191277,5.92177 -0.318652,5.92177 -0.127375,0 -6.532355,-6.29955 -14.23329,-13.99899 L -7.0073284e-4,173.28203 28.641465,144.63854 l 28.642167,-28.64349 -4.453104,-4.44458 -4.453101,-4.44458 -6.502225,1.62688 c -3.576224,0.89478 -6.553306,1.57579 -6.615741,1.51336 -0.06243,-0.0624 0.97865,-2.57651 2.313514,-5.58684 1.334864,-3.01033 2.427027,-5.575322 2.427027,-5.699978 0,-0.124656 -1.256998,-1.489498 -2.793328,-3.03298 -1.536329,-1.543481 -2.611811,-2.806329 -2.389958,-2.806329 0.221856,0 0.485942,0.215174 0.58686,0.478163 0.100919,0.262989 0.33465,0.384739 0.519399,0.270557 0.184752,-0.114183 0.243024,-0.05731 0.129494,0.126384 C 35.865244,94.298048 69.980465,128.96 70.465851,128.96 c 0.113868,0 3.185744,-4.68 6.82639,-10.4 3.640644,-5.72 6.668644,-10.4 6.72889,-10.4 0.06025,0 9.944139,11.26788 21.964209,25.03973 12.02007,13.77185 22.25801,25.47185 22.75099,26 1.05605,1.1314 2.57198,3.56116 -22.95959,-36.79973 C 94.754626,104.976 85.602171,90.720003 85.437954,90.720003 c -0.164218,0 -3.614759,5.392621 -7.667863,11.983597 -4.053107,6.59098 -7.477466,12.08035 -7.609687,12.19859 -0.132221,0.11824 -1.872771,-0.79618 -3.867894,-2.03205 l -3.627495,-2.24704 4.587495,-4.63098 c 3.26631,-3.29727 4.357097,-4.57572 3.787494,-4.43911 -10.74538,2.57708 -15.858964,3.88488 -15.937722,4.07609 -0.06875,0.16689 -13.089364,-7.702896 -14.066388,-8.501865 -0.04626,-0.03783 9.59241,-21.906935 21.419265,-48.598008 L 83.95853,0 l 10.900736,0.00535764 10.900744,0.00535764 8.55921,18.71943972 8.55922,18.71944 -12.63922,22.40793 c -6.95157,12.324362 -12.639214,22.509889 -12.639214,22.634506 0,0.124618 12.275684,12.50289 27.279304,27.507279 L 152.1586,137.28 h -9.43822 -9.43823 l 17.83875,17.84089 17.83875,17.84088 -27.14246,27.14105 -27.14246,27.14106 -4.43015,20.05806 c -2.43658,11.03194 -4.67849,21.17274 -4.98203,22.53512 -0.30354,1.36238 -0.45978,2.41843 -0.34721,2.34678 0.11256,-0.0716 5.17267,-6.46 11.24467,-14.19634 6.072,-7.73634 11.0923,-14.0201 11.15622,-13.9639 0.0639,0.0562 -7.20293,22.93388 -16.14856,50.83929 l -16.264765,50.73712 h -5.381492 c -4.021901,0 -5.414637,-0.10106 -5.512672,-0.4 z m 12.629258,-143.11799 9.754061,-9.758 -9.436029,-9.55203 c -5.189814,-5.25361 -9.544026,-9.57452 -9.676026,-9.602 -0.132,-0.0275 -0.24,3.11802 -0.24,6.99002 0,3.872 -0.03956,7.04 -0.08791,7.04 -0.04835,0 -3.361933,-3.27403 -7.363514,-7.27561 l -7.275607,-7.2756 7.202653,-7.20265 7.20265,-7.20266 7.283421,7.27826 7.283412,7.27825 h 12.31712 12.31712 L 106.31968,153.20033 86.720005,133.60066 67.12066,153.2 47.521312,172.79935 67.039674,192.31968 c 10.735102,10.73618 19.591691,19.52033 19.681314,19.52033 0.08962,0 4.552278,-4.3911 9.917011,-9.75799 z m 37.762011,-19.68201 v -2.88 h -12.48 -12.48 v 2.88 2.88 h 12.48 12.48 z m -73.340006,73.3814 c 0.230998,-0.0924 0.506998,-0.0811 0.613334,0.0252 0.106333,0.10633 -0.08267,0.18197 -0.42,0.16807 -0.372784,-0.0154 -0.448608,-0.0912 -0.193334,-0.19333 z m -1.477616,-0.9014 c 0.0065,-0.528 0.07824,-0.70526 0.159372,-0.39391 0.08113,0.31135 0.0758,0.74335 -0.01187,0.96 -0.08766,0.21665 -0.154038,-0.0381 -0.147516,-0.56609 z m 3.717616,0.2614 c 0.230998,-0.0924 0.506998,-0.0811 0.613334,0.0252 0.106333,0.10633 -0.08267,0.18196 -0.42,0.16807 -0.372784,-0.0154 -0.448608,-0.0912 -0.193334,-0.19333 z m -3.397616,-2.8214 c 0.0065,-0.528 0.07824,-0.70526 0.159372,-0.39391 0.08113,0.31135 0.0758,0.74335 -0.01187,0.96 -0.08766,0.21665 -0.154038,-0.0381 -0.147516,-0.56609 z m 0.32,-2.56 c 0.0065,-0.528 0.07824,-0.70526 0.159372,-0.39391 0.08113,0.31135 0.0758,0.74335 -0.01187,0.96 -0.08766,0.21665 -0.154038,-0.0381 -0.147516,-0.56609 z m 0.28288,-3.22667 c 0.01536,-0.37278 0.09118,-0.44861 0.193331,-0.19333 0.09244,0.231 0.08107,0.507 -0.02525,0.61333 -0.106336,0.10633 -0.181965,-0.0827 -0.168071,-0.42 z m 0.32,-2.88 c 0.01536,-0.37278 0.09118,-0.44861 0.193331,-0.19333 0.09244,0.231 0.08107,0.507 -0.02525,0.61333 -0.106336,0.10633 -0.181965,-0.0827 -0.168071,-0.42 z m 8.03712,-0.61333 c 0.0065,-0.528 0.07824,-0.70526 0.159373,-0.39391 0.08113,0.31135 0.0758,0.74335 -0.01187,0.96 -0.08766,0.21665 -0.154039,-0.0381 -0.147517,-0.56609 z m -0.331859,-3.68 c 0,-0.44 0.07263,-0.62 0.161405,-0.4 0.08877,0.22 0.08877,0.58 0,0.8 -0.08877,0.22 -0.161405,0.04 -0.161405,-0.4 z m -7.065261,-0.50667 c 0.01536,-0.37278 0.09118,-0.44861 0.193331,-0.19333 0.09244,0.231 0.08107,0.507 -0.02525,0.61333 -0.106336,0.10633 -0.181965,-0.0827 -0.168071,-0.42 z m 6.745261,-2.69333 c 0,-0.44 0.07263,-0.62 0.161405,-0.4 0.08877,0.22 0.08877,0.58 0,0.8 -0.08877,0.22 -0.161405,0.04 -0.161405,-0.4 z m -6.376285,-0.64 c 0,-0.616 0.06586,-0.868 0.146345,-0.56 0.08049,0.308 0.08049,0.812 0,1.12 -0.08049,0.308 -0.146345,0.056 -0.146345,-0.56 z m 0.32,-2.56 c 0,-0.616 0.06586,-0.868 0.146345,-0.56 0.08049,0.308 0.08049,0.812 0,1.12 -0.08049,0.308 -0.146345,0.056 -0.146345,-0.56 z m 5.76,-0.96 c 0,-0.616 0.06586,-0.868 0.146346,-0.56 0.08049,0.308 0.08049,0.812 0,1.12 -0.08049,0.308 -0.146346,0.056 -0.146346,-0.56 z m -5.451856,-1.76 c 0.0065,-0.528 0.07824,-0.70526 0.159373,-0.39391 0.08113,0.31135 0.0758,0.74335 -0.01187,0.96 -0.08766,0.21665 -0.154039,-0.0381 -0.147517,-0.56609 z m 0.331856,-2.72 c 0,-0.616 0.06586,-0.868 0.146345,-0.56 0.08049,0.308 0.08049,0.812 0,1.12 -0.08049,0.308 -0.146345,0.056 -0.146345,-0.56 z m -17.414241,-1.1786 c 0.230998,-0.0924 0.506998,-0.0811 0.613334,0.0252 0.106333,0.10633 -0.08267,0.18196 -0.42,0.16807 -0.372784,-0.0154 -0.448608,-0.0912 -0.193334,-0.19333 z m 1.92,-0.32 c 0.230998,-0.0924 0.506998,-0.0811 0.613334,0.0252 0.106333,0.10633 -0.08267,0.18196 -0.42,0.16807 -0.372784,-0.0154 -0.448608,-0.0912 -0.193334,-0.19333 z m 3.5,-0.63333 c 0.22,-0.0888 0.58,-0.0888 0.8,0 0.22,0.0888 0.04,0.1614 -0.4,0.1614 -0.44,0 -0.62,-0.0726 -0.4,-0.1614 z m 12.240001,-0.72582 c 0,-0.71805 -0.168679,-0.97023 -0.72,-1.07642 -0.617328,-0.1189 -0.594509,-0.14489 0.16,-0.18226 0.800681,-0.0396 0.88,0.0574 0.88,1.07643 0,0.616 -0.072,1.12 -0.16,1.12 -0.088,0 -0.16,-0.42199 -0.16,-0.93775 z m -10.320001,0.40582 c 0.22,-0.0888 0.58,-0.0888 0.8,0 0.22,0.0888 0.04,0.1614 -0.4,0.1614 -0.44,0 -0.62,-0.0726 -0.4,-0.1614 z m 2.08609,-0.32983 c 0.31135,-0.0811 0.74335,-0.0758 0.96,0.0119 0.21665,0.0877 -0.03809,0.15404 -0.56609,0.14752 -0.528,-0.007 -0.705261,-0.0782 -0.39391,-0.15937 z m 2.07391,-0.31017 c 0.22,-0.0888 0.58,-0.0888 0.8,0 0.22,0.0888 0.04,0.1614 -0.4,0.1614 -0.44,0 -0.62,-0.0726 -0.4,-0.1614 z m 1.62,-0.32667 c 0.230999,-0.0924 0.506999,-0.0811 0.613335,0.0252 0.106333,0.10633 -0.08267,0.18196 -0.42,0.16807 -0.372784,-0.0154 -0.448608,-0.0912 -0.193335,-0.19333 z m -6.98,-1.82717 c 0,-0.0692 0.223478,-0.21152 0.496621,-0.31633 0.284774,-0.10928 0.413222,-0.0556 0.301113,0.12576 -0.187923,0.30407 -0.797734,0.44974 -0.797734,0.19057 z m 1.6,-0.83423 c 0.264,-0.17061 0.624,-0.3102 0.8,-0.3102 0.176,0 0.104,0.13959 -0.16,0.3102 -0.264,0.17061 -0.624,0.31019 -0.8,0.31019 -0.176,0 -0.104,-0.13958 0.16,-0.31019 z m 1.28,-0.44577 c 0,-0.0692 0.223479,-0.21152 0.496621,-0.31633 0.284774,-0.10928 0.413222,-0.0556 0.301114,0.12576 -0.187924,0.30407 -0.797735,0.44974 -0.797735,0.19057 z"
         id="path181"
         inkscape:label="back" />
      <path
         style="fill:#edc542;stroke-width:0.32"
         d="m 60.023392,252.88001 c 0.21514,-1.716 0.479869,-3.984 0.588285,-5.04 0.108416,-1.056 0.266375,-2.496 0.351018,-3.2 1.306589,-10.8674 2.392864,-20.2848 2.394829,-20.76187 0.0019,-0.50318 -0.168064,-0.57215 -1.03752,-0.42062 -0.572,0.0997 -4.912061,0.84082 -9.644577,1.64696 -4.732519,0.80614 -8.944519,1.55103 -9.36,1.65531 -0.415485,0.10428 -0.755424,0.0485 -0.755424,-0.12401 0,-0.26245 3.142013,-1.76784 7.92,-3.79462 3.173312,-1.34608 3.250058,-1.37986 10.685389,-4.70317 l 5.32539,-2.38024 0.211859,2.76113 c 0.116525,1.51862 0.417033,4.84913 0.667798,7.40113 0.250768,2.552 0.756669,8.09366 1.124224,12.3148 0.367559,4.22115 0.694624,7.7006 0.726813,7.73212 0.03219,0.0315 2.002528,0.14853 4.378528,0.26001 2.376,0.11147 6.912001,0.33994 10.080001,0.50769 3.168,0.16775 6.252,0.30509 6.853335,0.30519 0.601331,1e-4 1.032473,0.061 0.958089,0.13543 -0.07438,0.0744 -2.798384,0.86246 -6.053334,1.75128 -3.254951,0.88881 -7.14209,1.97783 -8.63809,2.42002 -7.040174,2.08098 -16.357931,4.65346 -16.855233,4.65346 -0.19802,0 -0.16921,-1.14327 0.07862,-3.12 z M 67.039674,192.31968 47.521312,172.79935 67.12066,153.2 86.720005,133.60066 106.31968,153.20033 125.91935,172.8 h -12.31712 -12.31712 l -7.283415,-7.27825 -7.283421,-7.27826 -7.20265,7.20266 -7.202653,7.20265 7.275607,7.2756 c 4.001581,4.00158 7.315165,7.27561 7.363514,7.27561 0.04835,0 0.08791,-3.168 0.08791,-7.04 0,-3.872 0.108,-7.01752 0.24,-6.99002 0.132,0.0275 4.486212,4.34839 9.676026,9.602 l 9.436032,9.55203 -9.754064,9.758 c -5.364733,5.36689 -9.827386,9.75799 -9.917011,9.75799 -0.08962,0 -8.946212,-8.78415 -19.681314,-19.52033 z m 42.400336,-9.91967 v -2.88 h 12.48 12.48 v 2.88 2.88 h -12.48 -12.48 z M 106.89507,134.2368 C 94.527478,120.06704 84.296056,108.40409 84.158584,108.31913 c -0.137469,-0.085 -3.22799,4.52447 -6.867824,10.2432 -3.639831,5.71872 -6.704113,10.39767 -6.809511,10.39767 -0.193869,0 -27.381867,-27.23913 -32.401247,-32.46218 -1.496,-1.556704 -2.490061,-2.701545 -2.209024,-2.544092 0.28104,0.157449 8.035444,4.966275 17.232014,10.686272 9.196567,5.72 16.814628,10.37846 16.929022,10.35212 0.114397,-0.0263 3.560662,-5.49833 7.658368,-12.16 4.097709,-6.661663 7.584429,-12.112117 7.748266,-12.112117 0.163837,0 9.315978,14.255997 20.338092,31.679997 11.02211,17.424 20.89068,33.012 21.93015,34.64 1.03948,1.628 1.84153,2.96 1.78234,2.96 -0.0592,0 -10.22656,-11.59344 -22.59416,-25.7632 z"
         id="path179"
         inkscape:label="logo" />
    </g>
  </g>
</svg>
